<svg xmlns:dc="http://purl.org/dc/elements/1.1/" xmlns:cc="http://creativecommons.org/ns#" xmlns:rdf="http://www.w3.org/1999/02/22-rdf-syntax-ns#" xmlns:svg="http://www.w3.org/2000/svg" xmlns="http://www.w3.org/2000/svg" xmlns:xlink="http://www.w3.org/1999/xlink" xmlns:sodipodi="http://sodipodi.sourceforge.net/DTD/sodipodi-0.dtd" xmlns:inkscape="http://www.inkscape.org/namespaces/inkscape" id="svg2" inkscape:version="0.92.0 r" xml:space="preserve" width="463.20322" height="401.36835" viewBox="0 0 463.20321 401.36835" sodipodi:docname="anesthesiology-white.svg" inkscape:export-filename="/home/mischka/Documents/anesthesiology white on green.png" inkscape:export-xdpi="120" inkscape:export-ydpi="120"> <metadata id="metadata8"/> <defs id="defs6"/> <g inkscape:groupmode="layer" id="layer1" inkscape:label="ink_ext_XXXXXX 1" style="display:none;opacity:1" transform="translate(50.714119,14.366348)"> <image y="-22.375906" x="-152.19875" id="image4301" style="image-rendering:optimizeSpeed" preserveAspectRatio="none" height="472.28442" width="654.37"/> </g> <g id="g10" inkscape:groupmode="layer" inkscape:label="ink_ext_XXXXXX" transform="matrix(1.25,0,0,-1.25,50.714119,602.0288)" style="display:inline;opacity:1"> <path inkscape:connector-curvature="0" id="path14" style="opacity:1;fill:none;stroke:#ffffff;stroke-width:3.25;stroke-linecap:butt;stroke-linejoin:miter;stroke-miterlimit:4;stroke-dasharray:none;stroke-opacity:1" d="m 68.9102,378.60721 66.3328,0 c 2.499,-1.745 6.072,-2.839 10.042,-2.839 3.97,0 7.543,1.094 10.042,2.839 l 66.333,0"/> <path style="opacity:1;fill:#ffffff;fill-opacity:1;fill-rule:nonzero;stroke:none" d="M 216.66016 20.003906 C 207.82844 20.120446 198.15566 23.416719 191.09375 26.035156 C 184.14125 28.613906 171.48438 32.520156 163.98438 31.816406 L 140.12891 118.92578 C 145.40478 120.09703 164.36327 118.63391 175.02539 115.47266 C 192.91014 110.16891 218.80625 106.97266 232.5 124.47266 C 246.19375 106.97266 272.08766 110.16891 289.97266 115.47266 C 300.63641 118.63391 319.59414 120.09703 324.86914 118.92578 L 301.01367 31.816406 C 293.51367 32.520156 280.85875 28.613906 273.90625 26.035156 C 262.01125 21.625156 242.71 15.291797 232.5 25.466797 C 228.3527 21.333203 222.70291 19.924169 216.66016 20.003906 z M 223.28906 24.789062 C 223.98333 24.811563 224.61266 25.038281 225.07812 25.488281 C 226.31812 26.688281 225.96328 28.82375 225.17578 29.6875 C 224.38703 30.5525 223.51242 30.817422 223.51367 32.544922 C 223.51617 34.258672 225.15461 35.0975 227.06836 35.9375 C 228.33367 36.492694 229.0423 36.788792 230.31836 37.341797 L 230.28906 36.007812 L 228.97656 34.783203 A 0.46879688 0.46879688 0 0 1 228.82617 34.4375 L 228.83398 31.798828 A 0.46879688 0.46879688 0 0 1 229.51953 31.384766 L 232.49414 32.931641 L 235.4668 31.384766 A 0.46879688 0.46879688 0 0 1 236.15039 31.798828 L 236.1582 34.4375 A 0.46879688 0.46879688 0 0 1 236.00977 34.783203 L 234.69336 36.007812 L 234.625 39.205078 C 236.66205 40.081112 239.48679 41.304924 240.54492 41.765625 C 244.55617 43.510625 247.73375 46.061016 247.8125 51.322266 C 247.86125 54.628516 244.66016 59.628359 239.44141 59.662109 C 237.62533 59.673961 235.8097 59.629243 234.19922 59.121094 L 234.07617 64.900391 C 236.56517 65.99792 239.03862 67.108028 240.9375 68.015625 C 244.08125 69.516875 245.75867 70.869141 245.85742 75.619141 C 245.95617 80.339141 241.56242 84.051641 237.57617 84.056641 C 236.13934 84.058283 234.70253 83.581456 233.68555 83.166016 L 233.58203 87.992188 L 239.81641 90.748047 C 242.73266 92.128047 243.98227 94.395625 244.00977 97.390625 C 244.04227 101.19937 240.37492 104.08203 237.26367 104.08203 C 236.09338 104.08203 234.66755 103.56391 233.26172 102.91211 L 233.17969 106.81445 C 235.31922 107.77961 237.63758 108.82923 238.33203 109.13477 C 239.88453 109.81602 241.11936 111.45289 240.35938 112.74414 C 239.66313 113.92664 238.00367 113.91039 236.48242 113.27539 C 235.91012 113.03621 234.39098 112.35488 233.07227 111.76758 L 232.96289 116.92773 L 232.96289 116.95117 A 0.46879688 0.46879688 0 0 1 232.51367 117.40625 A 0.46879688 0.46879688 0 0 1 232.02539 116.95117 L 232.02539 116.92773 L 231.9043 111.25195 C 229.49095 110.1686 226.99471 109.03253 225.80664 108.45703 C 222.42164 106.81578 221.47311 104.27977 221.48438 102.72852 C 221.51063 99.082258 224.08875 96.660156 227.5 96.660156 C 229.08468 96.660156 230.33621 97.093386 231.61328 97.707031 L 231.51562 93.183594 L 225.625 90.722656 C 221.98 89.238906 220.25953 86.479141 220.20703 83.119141 C 220.11953 77.520391 224.99828 75.410156 227.86328 75.410156 C 229.36946 75.410156 230.34496 75.55534 231.14258 75.816406 L 231.02148 70.123047 C 230.27901 69.812682 229.51223 69.496862 228.69727 69.185547 C 221.04227 66.261797 218.64539 62.806641 218.61914 58.900391 C 218.57539 52.260391 223.72289 49.837891 227.68164 49.837891 C 228.79903 49.837891 229.72785 49.964521 230.59375 50.248047 L 230.45703 43.841797 C 228.59576 42.995072 226.6314 42.097209 224.45312 41.087891 C 220.31938 39.171641 216.97828 35.983281 216.92578 32.363281 C 216.88578 29.577031 218.06609 27.949844 219.74609 26.308594 C 220.79609 25.283594 222.13195 24.751563 223.28906 24.789062 z M 213.69141 31.013672 A 1.0941323 1.0941323 0 0 1 213.77148 33.197266 C 205.98973 33.872978 197.72444 36.695572 191.47266 39.013672 C 186.56237 40.835147 178.87708 43.304734 172.01953 44.396484 A 1.0938594 1.0938594 0 0 1 171.80273 44.412109 A 1.0938594 1.0938594 0 0 1 171.67578 42.236328 C 178.27574 41.185578 185.89622 38.748903 190.71094 36.962891 C 197.00665 34.628491 205.41379 31.726853 213.58203 31.017578 A 1.0941323 1.0941323 0 0 1 213.69141 31.013672 z M 251.37109 31.013672 A 1.0942377 1.0942377 0 0 1 251.41797 31.017578 C 259.58622 31.726853 267.98944 34.628491 274.28516 36.962891 C 279.09987 38.748903 286.7223 41.185578 293.32227 42.236328 A 1.0938594 1.0938594 0 0 1 293.16211 44.412109 A 1.0938594 1.0938594 0 0 1 292.97656 44.396484 C 286.11901 43.304734 278.43373 40.835147 273.52344 39.013672 C 267.27165 36.695572 259.00831 33.874931 251.22656 33.199219 A 1.0942377 1.0942377 0 0 1 251.26172 31.015625 A 1.0942377 1.0942377 0 0 1 251.37109 31.013672 z M 213.2168 44.091797 A 1.0938841 1.0938841 0 0 1 213.25 46.279297 C 205.12105 46.406059 196.36768 48.875678 189.47656 51.158203 L 189.47461 51.158203 L 189.47461 51.160156 C 187.70011 51.745406 185.70402 52.400591 183.5957 53.064453 L 183.5918 53.064453 C 179.18432 54.450966 173.87483 55.757875 168.93359 56.476562 A 1.0938594 1.0938594 0 0 1 168.7168 56.490234 L 168.7168 56.488281 A 1.0938594 1.0938594 0 0 1 168.61914 54.310547 C 173.4064 53.614247 178.63498 52.330064 182.9375 50.976562 L 182.93555 50.978516 C 185.02723 50.319878 187.01412 49.666781 188.78711 49.082031 C 195.7535 46.774569 204.67325 44.225034 213.2168 44.091797 z M 251.69727 44.091797 A 1.0938836 1.0938836 0 0 1 251.72266 44.091797 A 1.0938836 1.0938836 0 0 1 251.73633 44.091797 A 1.0938836 1.0938836 0 0 1 251.7832 44.091797 C 260.32594 44.225022 269.24058 46.774806 276.20898 49.082031 C 277.98042 49.666681 279.97185 50.319803 282.0625 50.978516 L 282.0625 50.976562 C 286.36634 52.330087 291.59213 53.614247 296.37891 54.310547 A 1.0938594 1.0938594 0 0 1 296.24805 56.492188 A 1.0938594 1.0938594 0 0 1 296.0625 56.476562 C 291.12178 55.757875 285.81297 54.450941 281.4043 53.064453 C 279.29746 52.400666 277.29895 51.743566 275.52539 51.158203 L 275.52344 51.158203 C 268.62964 48.875616 259.87894 46.406059 251.75 46.279297 A 1.0940677 1.0940677 0 0 1 251.69727 44.091797 z M 234.48633 45.654297 L 234.34375 52.378906 C 235.49955 53.053902 236.70548 53.535156 238.125 53.535156 C 239.50875 53.535156 241.11875 52.796406 241.09375 50.878906 C 241.07125 49.090156 240.81164 48.215625 236.74414 46.609375 C 236.18047 46.386515 235.39801 46.05299 234.48633 45.654297 z M 227.60352 55.931641 C 225.93602 55.931641 224.86914 56.451797 224.86914 58.560547 C 224.86914 59.863047 225.12937 61.010391 228.20312 62.337891 C 228.97009 62.669593 229.98682 63.11783 230.87891 63.505859 L 230.74414 57.185547 C 229.71278 56.516135 228.65014 55.931641 227.60352 55.931641 z M 211.16602 57.117188 C 211.72674 57.124834 212.28648 57.142291 212.84375 57.169922 A 1.0941903 1.0941903 0 0 1 212.73242 59.355469 C 204.2537 58.935069 195.01545 61.050966 187.48242 63.298828 L 187.47852 63.300781 C 185.5252 63.880556 183.42596 64.529753 181.27344 65.197266 C 176.73426 66.603691 171.11309 67.855053 165.85156 68.556641 A 1.0938594 1.0938594 0 0 1 165.74414 68.570312 L 165.74414 68.568359 A 1.0938594 1.0938594 0 0 1 165.5625 66.388672 C 170.68772 65.705259 176.22612 64.470997 180.62695 63.107422 C 182.77942 62.439934 184.88573 61.788362 186.85742 61.203125 C 194.01943 59.065977 202.75519 57.00248 211.16602 57.117188 z M 253.83398 57.117188 C 262.24386 57.002538 270.97815 59.066176 278.13867 61.203125 C 280.11175 61.788387 282.21863 62.439934 284.37109 63.107422 C 288.77333 64.471047 294.31192 65.705259 299.4375 66.388672 A 1.0938594 1.0938594 0 0 1 299.33203 68.568359 A 1.0938594 1.0938594 0 0 1 299.14648 68.556641 C 293.88456 67.855041 288.26488 66.603641 283.72461 65.197266 C 281.57208 64.529753 279.47006 63.880519 277.51562 63.300781 L 277.51562 63.298828 C 269.98389 61.050978 260.74241 58.935069 252.26367 59.355469 A 1.0940926 1.0940926 0 0 1 252.15625 57.169922 C 252.71347 57.142294 253.27333 57.124831 253.83398 57.117188 z M 207.18359 69.966797 C 208.95597 69.972794 210.72142 70.062891 212.46289 70.253906 A 1.0943953 1.0943953 0 0 1 212.22461 72.429688 C 203.39248 71.460938 193.66704 73.224762 185.49414 75.4375 L 185.49219 75.4375 L 185.49219 75.439453 C 183.35733 76.015028 181.15352 76.661744 178.95703 77.332031 C 174.28507 78.759231 168.35219 79.95575 162.76953 80.640625 A 1.0938594 1.0938594 0 0 1 162.66016 80.650391 L 162.66016 80.648438 A 1.0941869 1.0941869 0 1 1 162.50195 78.466797 C 167.96429 77.796684 173.81437 76.613569 178.31641 75.238281 C 180.52742 74.563569 182.75618 73.908631 184.92383 73.324219 L 184.92383 73.328125 C 191.67538 71.500203 199.50331 69.940808 207.18359 69.966797 z M 257.81445 69.966797 C 265.49499 69.940805 273.3246 71.500193 280.07617 73.328125 L 280.07617 73.324219 C 282.24237 73.908581 284.47052 74.563531 286.68164 75.238281 L 286.68359 75.238281 C 291.18484 76.613556 297.03376 77.796684 302.49609 78.466797 A 1.0938594 1.0938594 0 0 1 302.41602 80.648438 A 1.0938594 1.0938594 0 0 1 302.23047 80.638672 C 296.64781 79.953797 290.71422 78.759244 286.04297 77.332031 C 283.84659 76.661781 281.63967 76.015078 279.50586 75.439453 L 279.50586 75.4375 C 271.333 73.224762 261.60622 71.460938 252.77539 72.429688 A 1.0945019 1.0945019 0 0 1 252.53516 70.253906 C 254.27641 70.062891 256.04202 69.972795 257.81445 69.966797 z M 233.9375 71.382812 L 233.8125 77.228516 C 234.95412 77.861551 236.13029 78.353516 237.16016 78.353516 C 238.69766 78.353516 239.84375 77.504141 239.84375 75.931641 C 239.84375 74.030391 238.48852 73.327266 236.97852 72.728516 C 236.30944 72.463323 235.2183 71.957703 233.9375 71.382812 z M 227.10938 80.619141 C 225.80687 80.604141 224.97266 81.452891 224.97266 82.650391 C 224.97266 83.874141 225.78875 84.470156 227.03125 85.097656 L 231.38281 87.021484 L 231.27539 81.974609 C 230.1483 81.357915 228.6644 80.63758 227.10938 80.619141 z M 202.85938 82.673828 C 205.96382 82.641592 209.05904 82.839836 212.07617 83.337891 A 1.0938594 1.0938594 0 1 1 211.7207 85.496094 C 202.53553 83.979856 192.324 85.397847 183.50781 87.576172 C 181.18936 88.148347 178.87772 88.791544 176.63672 89.464844 C 171.8343 90.909756 165.594 92.05025 159.68945 92.71875 A 1.0938594 1.0938594 0 0 1 159.57812 92.726562 A 1.0938594 1.0938594 0 0 1 159.44141 90.544922 C 165.23986 89.888422 171.40423 88.756181 176.00781 87.371094 C 178.2768 86.689381 180.62087 86.033997 182.98242 85.451172 C 189.15707 83.925506 196.02958 82.744749 202.85938 82.673828 z M 262.13867 82.673828 C 268.96872 82.744754 275.84181 83.925523 282.01562 85.451172 C 284.37721 86.033997 286.72125 86.689381 288.99023 87.371094 C 293.59462 88.756194 299.75771 89.888422 305.55469 90.544922 A 1.0945521 1.0945521 0 1 1 305.38672 92.726562 A 1.0938594 1.0938594 0 0 1 305.30859 92.71875 C 299.40556 92.05025 293.16444 90.909731 288.36133 89.464844 C 286.12033 88.791544 283.80868 88.148347 281.49023 87.576172 C 272.67535 85.397834 262.46251 83.979856 253.27734 85.496094 A 1.0938594 1.0938594 0 1 1 252.92188 83.337891 C 255.93902 82.839836 259.0341 82.641589 262.13867 82.673828 z M 233.45312 93.992188 L 233.35547 98.580078 C 234.64795 99.223611 235.76635 99.681641 236.61328 99.681641 C 237.79328 99.681641 238.69875 99.134531 238.75 97.988281 C 238.8 96.895781 238.30641 96.061406 236.84766 95.410156 L 233.45312 93.992188 z M 199.49805 95.259766 C 203.61552 95.225495 207.72441 95.568562 211.68555 96.425781 A 1.0939428 1.0939428 0 1 1 211.22461 98.564453 C 199.15526 95.952553 185.23778 98.36275 174.32031 101.59961 C 169.3867 103.06323 162.83408 104.14647 156.60742 104.79883 A 1.0938594 1.0938594 0 0 1 156.49805 104.80664 A 1.0943448 1.0943448 0 0 1 156.38086 102.62109 C 162.5147 101.97846 168.99233 100.89832 173.69922 99.501953 C 181.34132 97.236194 190.43961 95.335162 199.49805 95.259766 z M 265.5 95.259766 C 274.55893 95.335161 283.65809 97.236194 291.30078 99.501953 C 296.00743 100.89832 302.4836 101.97846 308.61719 102.62109 A 1.0944541 1.0944541 0 0 1 308.46484 104.80469 A 1.0938594 1.0938594 0 0 1 308.39062 104.79883 C 302.16422 104.14647 295.6111 103.06323 290.67773 101.59961 C 279.75937 98.362744 265.84344 95.952566 253.77539 98.564453 A 1.0942019 1.0942019 0 1 1 253.3125 96.425781 C 257.27327 95.568555 261.3823 95.225495 265.5 95.259766 z M 227.62891 100.30664 C 226.53641 100.28789 225.49414 101.16555 225.49414 102.1543 C 225.49414 103.1443 226.06602 103.61438 226.82227 103.95312 C 227.73114 104.36031 229.71127 105.25094 231.79492 106.19141 L 231.70898 102.14648 C 229.93057 101.22751 228.35462 100.31947 227.62891 100.30664 z " transform="matrix(0.8,0,0,-0.8,-40.571295,481.62304)" id="path16"/> <path inkscape:connector-curvature="0" id="path48" style="opacity:1;fill:#ffffff;fill-opacity:1;fill-rule:nonzero;stroke:none" d="m 135.845,457.92221 c 0.586,0 1.06,0.475 1.06,1.06 0,0.586 -0.474,1.061 -1.06,1.061 -0.586,0 -1.061,-0.475 -1.061,-1.061 0,-0.585 0.475,-1.06 1.061,-1.06"/> <path inkscape:connector-curvature="0" id="path50" style="opacity:1;fill:#ffffff;fill-opacity:1;fill-rule:nonzero;stroke:none" d="m 85.8441,349.70821 c 0,1.68 0,5.565 -0.525,6.982 -0.6824,1.786 -3.0144,1.786 -4.6945,1.786 l 0,1.777 27.8904,0 0,-8.108 -1.387,0 c -0.937,5.768 -4.483,5.971 -9.1124,5.971 l -3.7797,0 c -1.6273,0 -1.3652,0.157 -1.3652,-2.153 l 0,-11.723 c 6.625,-0.29 7.6863,2.666 8.0173,6.637 l 1.568,0 c -0.053,-2.362 -0.105,-4.957 -0.21,-7.319 0.105,-2.153 0.157,-4.718 0.21,-6.871 l -1.568,0 c -0.701,5.263 -3.3442,5.775 -8.0173,5.775 l 0,-7.71 c 0,-1.575 0,-4.402 0.9453,-5.6629 1.3649,-1.8379 4.6195,-1.9422 6.719,-1.8902 4.352,0.0851 8.515,1.0171 9.173,7.0351 l 1.387,0 -0.113,-8.632 -28.1988,0 0,1.3871 c 1.0344,0 2.3043,0.8879 2.7156,1.966 0.5254,1.4168 0.3453,5.1219 0.3453,6.8019 l 0,13.951"/> <path inkscape:connector-curvature="0" id="path52" style="opacity:1;fill:#ffffff;fill-opacity:1;fill-rule:nonzero;stroke:none" d="m 171.5,301.70921 c 0,1.6801 0,5.566 -0.524,6.9828 -0.683,1.7852 -3.015,1.7852 -4.695,1.7852 l 0,1.7769 27.891,0 0,-8.107 -1.388,0 c -0.936,5.768 -4.483,5.9711 -9.112,5.9711 l -3.779,0 c -1.628,0 -1.366,0.157 -1.366,-2.1539 l 0,-11.7223 c 6.625,-0.2898 7.686,2.666 8.017,6.6371 l 1.567,0 c -0.052,-2.3621 -0.104,-4.9578 -0.209,-7.3199 0.105,-2.1519 0.157,-4.7172 0.209,-6.8699 l -1.567,0 c -0.701,5.2629 -3.344,5.775 -8.017,5.775 l 0,-7.7109 c 0,-1.575 0,-4.402 0.945,-5.6622 1.365,-1.8378 4.62,-1.9429 6.719,-1.8898 4.352,0.084 8.515,1.0168 9.173,7.0348 l 1.388,0 -0.113,-8.6328 -28.2,0 0,1.3878 c 1.035,0 2.305,0.8879 2.716,1.9649 0.526,1.4172 0.345,5.123 0.345,6.8031 l 0,13.95"/> <path inkscape:connector-curvature="0" id="path54" style="opacity:1;fill:#ffffff;fill-opacity:1;fill-rule:nonzero;stroke:none" d="m 237.665,301.70921 c 0,1.6801 0,5.566 -0.525,6.9828 -0.682,1.7852 -3.015,1.7852 -4.695,1.7852 l 0,1.7769 27.891,0 0,-8.107 -1.388,0 c -0.936,5.768 -4.483,5.9711 -9.112,5.9711 l -3.779,0 c -1.627,0 -1.366,0.157 -1.366,-2.1539 l 0,-11.7223 c 6.625,-0.2898 7.687,2.666 8.018,6.6371 l 1.567,0 c -0.052,-2.3621 -0.104,-4.9578 -0.21,-7.3199 0.106,-2.1519 0.158,-4.7172 0.21,-6.8699 l -1.567,0 c -0.702,5.2629 -3.345,5.775 -8.018,5.775 l 0,-7.7109 c 0,-1.575 0,-4.402 0.946,-5.6622 1.365,-1.8378 4.619,-1.9429 6.719,-1.8898 4.351,0.084 8.515,1.0168 9.172,7.0348 l 1.388,0 -0.113,-8.6328 -28.199,0 0,1.3878 c 1.035,0 2.304,0.8879 2.716,1.9649 0.525,1.4172 0.345,5.123 0.345,6.8031 l 0,13.95"/> <path inkscape:connector-curvature="0" id="path56" style="opacity:1;fill:#ffffff;fill-opacity:1;fill-rule:nonzero;stroke:none" d="m 124.445,335.00531 c 0,-1.7851 -0.21,-4.3051 0.84,-5.8281 1.207,-1.7852 3.345,-1.8149 5.34,-1.8149 8.108,0 9.533,6.7141 9.533,14.0259 0,9.77 -2.885,17.355 -12.248,17.355 -0.63,0 -2.678,0.105 -3.15,-0.367 -0.315,-0.315 -0.315,-1.208 -0.315,-1.628 l 0,-21.7429 z m -6.847,15.0759 c 0,1.68 0,5.564 -0.472,6.982 -0.578,1.838 -2.783,1.785 -4.462,1.785 l 0,1.493 c 2.152,-0.052 5.129,-0.158 7.334,-0.21 2.835,0.052 6.389,0.158 9.224,0.21 11.077,0.21 19.117,-6.72 19.117,-18.114 0,-11.1301 -6.938,-16.9051 -17.752,-16.643 -3.097,0.0531 -6.967,0.159 -10.064,0.2102 -2.415,-0.0512 -5.497,-0.1571 -7.859,-0.2102 l 0,1.3879 c 1.679,0 3.884,0 4.462,1.7852 0.472,1.4179 0.472,5.3031 0.472,6.9829 l 0,14.341"/> <path inkscape:connector-curvature="0" id="path58" style="opacity:1;fill:#ffffff;fill-opacity:1;fill-rule:nonzero;stroke:none" d="m 151.541,350.18521 c 0,1.681 0.359,5.026 -0.166,6.443 -0.682,1.786 -3.194,2.325 -4.874,2.325 l 0,1.388 c 2.52,-0.052 5.76,-0.158 8.279,-0.21 2.677,0.052 5.662,0.158 8.287,0.21 l 0,-1.388 c -1.68,0 -3.832,-0.719 -4.514,-2.504 -0.526,-1.418 -0.166,-4.583 -0.166,-6.264 l 0,-14.445 c 0,-1.6798 -0.18,-5.0259 0.345,-6.4439 0.683,-1.7851 3.735,-2.3242 5.414,-2.3242 l 0,-1.3879 c -2.466,0.0531 -6.478,0.159 -8.999,0.2102 -2.625,-0.0512 -6.381,-0.1571 -9.006,-0.2102 l 0,1.3879 c 1.68,0 4.373,0.359 5.054,2.1449 0.526,1.4184 0.346,4.9434 0.346,6.6232 l 0,14.445"/> <path inkscape:connector-curvature="0" id="path60" style="opacity:1;fill:#ffffff;fill-opacity:1;fill-rule:nonzero;stroke:none" d="m 191.726,360.43321 1.506,0 0.42,-9.983 -1.567,0 c -0.841,5.494 -4.931,9.203 -10.178,9.203 -9.813,0 -11.872,-9.139 -11.872,-17.348 0,-7.428 3.074,-15.6608 12.157,-15.6608 6.662,0 9.58,5.7129 10.703,11.5498 l 1.485,0 0,-11.8569 -1.223,0 -1.26,2.8579 c -2.833,-2.2411 -5.049,-4.4782 -11.421,-4.4782 -11.391,0 -18.622,7.5782 -18.622,17.5882 0,12.24 8.043,19.095 19.094,19.095 4.305,0 6.316,-0.818 9.938,-3.075 l 0.84,2.108"/> <path inkscape:connector-curvature="0" id="path62" style="opacity:1;fill:#ffffff;fill-opacity:1;fill-rule:nonzero;stroke:none" d="m 215.046,339.43821 -5.415,13.906 -5.467,-13.906 10.882,0 z m -11.858,-3.172 c -0.788,-1.996 -1.98,-4.9808 -1.98,-7.0281 0,-1.9211 2.54,-2.284 4.073,-2.4379 l 0,-1.3871 c -1.943,0.0512 -4.193,0.1571 -6.135,0.2102 -1.837,-0.0531 -4.162,-0.159 -6,-0.2102 l 0,1.3871 c 2.41,0.2668 4.512,1.993 5.22,3.727 1.47,3.3609 2.888,6.488 4.358,9.848 l 8.032,20.633 2.684,0 10.605,-26.49 c 0.63,-1.366 1.785,-4.568 2.73,-5.775 1.155,-1.523 2.729,-1.734 4.515,-1.943 l 0,-1.3871 c -2.468,0.0512 -5.527,0.1571 -7.995,0.2102 -2.52,-0.0531 -6.172,-0.159 -8.691,-0.2102 l 0,1.3871 c 1.094,0.0379 4.042,0.8629 4.042,2.3551 0,0.507 -0.828,3.166 -1.05,3.7348 l -2.048,4.6881 -11.887,0 -0.473,-1.312"/> <path inkscape:connector-curvature="0" id="path64" style="opacity:1;fill:#ffffff;fill-opacity:1;fill-rule:nonzero;stroke:none" d="m 234.986,350.11321 c 0,1.68 -0.179,5.385 -0.704,6.803 -0.682,1.785 -2.655,1.965 -4.335,1.965 l 0,1.388 c 2.52,-0.053 5.347,-0.158 7.867,-0.21 2.678,0.052 5.842,0.157 8.52,0.21 l 0,-1.388 c -1.681,0 -3.693,0.042 -4.375,-1.743 -0.525,-1.417 -0.306,-5.345 -0.306,-7.025 l 0,-14.8212 c 0,-6.7199 0.511,-7.8218 7.178,-7.8218 2.341,0 4.459,-0.2668 6.555,0.9519 2.198,1.2793 3.567,4.1699 3.952,6.5633 l 1.312,0 -0.472,-9.4723 c -0.893,0.052 -1.837,0.1051 -2.73,0.209 -9.029,-0.157 -18.471,-0.157 -27.501,-0.209 l 0,1.3871 c 1.68,0 4.013,0.5391 4.695,2.325 0.525,1.4168 0.344,4.7629 0.344,6.442 l 0,14.446"/> <path inkscape:connector-curvature="0" id="path66" style="opacity:1;fill:#ffffff;fill-opacity:1;fill-rule:nonzero;stroke:none" d="m 108.136,301.94911 c 0,1.68 -0.179,5.3851 -0.704,6.8023 -0.683,1.7867 -2.656,1.9656 -4.335,1.9656 l 0,1.3883 c 2.52,-0.0543 5.347,-0.1582 7.866,-0.2109 2.678,0.0527 5.843,0.1566 8.52,0.2109 l 0,-1.3883 c -1.68,0 -3.692,0.0422 -4.375,-1.7429 -0.525,-1.418 -0.305,-5.345 -0.305,-7.025 l 0,-14.8207 c 0,-6.7192 0.51,-7.8231 7.177,-7.8231 2.341,0 4.459,-0.266 6.556,0.9527 2.197,1.2793 3.567,4.1692 3.952,6.5633 l 1.312,0 -0.472,-9.473 c -0.893,0.0531 -1.838,0.1058 -2.73,0.2097 -9.03,-0.1566 -18.472,-0.1566 -27.501,-0.2097 l 0,1.3879 c 1.679,0 4.012,0.5402 4.695,2.3242 0.524,1.418 0.344,4.7637 0.344,6.443 l 0,14.4457"/> <path inkscape:connector-curvature="0" id="path68" style="opacity:1;fill:#ffffff;fill-opacity:1;fill-rule:nonzero;stroke:none" d="m 140.98,301.94911 c 0,1.68 -0.18,5.3851 -0.705,6.8023 -0.682,1.7867 -2.655,1.9656 -4.335,1.9656 l 0,1.3883 c 2.52,-0.0543 5.348,-0.1582 7.868,-0.2109 2.677,0.0527 5.841,0.1566 8.519,0.2109 l 0,-1.3883 c -1.68,0 -3.692,0.0422 -4.375,-1.7429 -0.525,-1.418 -0.306,-5.345 -0.306,-7.025 l 0,-14.8207 c 0,-6.7192 0.511,-7.8231 7.178,-7.8231 2.341,0 4.458,-0.266 6.555,0.9527 2.198,1.2793 3.568,4.1692 3.952,6.5633 l 1.313,0 -0.472,-9.473 c -0.894,0.0531 -1.838,0.1058 -2.731,0.2097 -9.029,-0.1566 -18.471,-0.1566 -27.501,-0.2097 l 0,1.3879 c 1.68,0 4.013,0.5402 4.695,2.3242 0.525,1.418 0.345,4.7637 0.345,6.443 l 0,14.4457"/> <path inkscape:connector-curvature="0" id="path70" style="opacity:1;fill:#ffffff;fill-opacity:1;fill-rule:nonzero;stroke:none" d="m 73.5605,294.24441 c 0,-7.618 2.9938,-16.4332 12.0899,-16.4332 8.5113,0 10.7406,9.7691 10.7406,16.591 0,7.375 -1.9406,16.718 -11.0555,16.718 -7.9152,0 -11.775,-7.2629 -11.775,-16.8758 z m -8.0015,0 c 0,11.6148 9.3961,18.6527 19.9863,18.6527 10.2356,0 19.2067,-7.8488 19.2067,-18.2848 0,-10.7632 -8.9918,-18.3992 -19.5961,-18.3992 -10.4871,0 -19.5969,6.8539 -19.5969,18.0313"/> <path inkscape:connector-curvature="0" id="path72" style="opacity:1;fill:#ffffff;fill-opacity:1;fill-rule:nonzero;stroke:none" d="m 228.709,302.15531 -1.643,0 c -1.25,6.702 -5.212,9.4117 -10.289,9.4117 -9.321,0 -11.722,-9.2988 -11.722,-17.3859 0,-6.8328 2.508,-15.593 10.889,-15.593 5.25,0 8.228,2.468 8.228,7.875 0,3.518 -1.312,4.2012 -4.515,4.4629 l 0,1.3883 15.195,0 0,-1.3883 c -2.836,0.0531 -3.616,-1.3637 -3.616,-3.9887 l 0,-5.9261 c -3.833,0 -4.687,-0.5989 -7.942,-2.3848 -2.677,-1.3652 -5.25,-1.9953 -8.242,-1.9953 -10.696,0 -17.999,6.7609 -17.999,17.6562 0,11.252 7.761,19.2079 18.734,19.2079 3.885,0 7.41,-0.7649 10.56,-3.1282 l 1.102,2.1832 1.478,0 -0.218,-10.3949"/> <path inkscape:connector-curvature="0" id="path74" style="opacity:1;fill:#ffffff;fill-opacity:1;fill-rule:nonzero;stroke:none" d="m 6.57031,250.28301 c 0,-6.33785 2.44297,-13.30074 9.46799,-13.30074 7.2293,0 8.9574,7.63907 8.9574,13.42814 0,6.2066 -2.193,13.384 -9.2125,13.384 -7.35039,0 -9.21289,-8.0141 -9.21289,-13.5114 z m -6.57031,0 c 0,9.4141 7.83594,14.8391 15.9531,14.8391 8.1153,0 15.793,-6.1289 15.793,-14.5418 0,-9.29491 -7.6305,-14.92499 -15.9629,-14.92499 C 7.49805,235.65532 0,241.74204 0,250.28301"/> <path inkscape:connector-curvature="0" id="path76" style="opacity:1;fill:#ffffff;fill-opacity:1;fill-rule:nonzero;stroke:none" d="m 170.461,250.28301 c 0,-6.33785 2.442,-13.30074 9.468,-13.30074 7.229,0 8.957,7.63907 8.957,13.42814 0,6.2066 -2.193,13.384 -9.212,13.384 -7.351,0 -9.213,-8.0141 -9.213,-13.5114 z m -6.57,0 c 0,9.4141 7.836,14.8391 15.953,14.8391 8.115,0 15.793,-6.1289 15.793,-14.5418 0,-9.29491 -7.631,-14.92499 -15.963,-14.92499 -8.285,0 -15.783,6.08672 -15.783,14.62769"/> <path inkscape:connector-curvature="0" id="path78" style="opacity:1;fill:#ffffff;fill-opacity:1;fill-rule:nonzero;stroke:none" d="m 53.1023,257.71511 -0.9773,0 c -0.5098,1.8269 -0.9348,3.6133 -2.8469,4.4191 -1.8265,0.8078 -3.709,0.766 -5.7484,0.766 -3.3988,0 -3.2715,0.2969 -3.3563,-2.38 l 0,-9.1579 c 4.1153,-0.1812 5.6774,0.8071 6.5661,4.7809 l 1.3367,0 c -0.0426,-1.9121 -0.0852,-3.866 -0.1699,-5.7781 0.0847,-1.7418 0.1273,-3.527 0.1699,-5.26877 l -1.3367,0 c -0.6454,4.83597 -1.979,4.54567 -6.5661,4.54567 l 0,-5.1738 c 0,-1.3168 -0.18,-3.92187 0.245,-5.06914 0.6375,-1.7 2.7195,-1.9 4.2062,-1.98398 l 0,-1.15782 c -2.1668,0.043 -4.7359,0.12696 -6.9027,0.16992 -2.1672,-0.043 -4.8313,-0.12695 -7.0832,-0.16992 l 0,1.15782 c 1.3597,0 3.2816,0.17929 3.834,1.62421 0.425,1.14805 0.2453,4.11211 0.2453,5.47188 l 0,11.62183 c 0,1.3614 0.1797,4.3243 -0.2453,5.4723 -0.5524,1.4449 -2.4743,1.625 -3.834,1.625 l 0,1.1559 c 2.5918,-0.0418 5.6383,-0.127 8.1449,-0.1692 4.5465,0.0422 9.093,0.1274 13.6394,0.1692 l 0.6793,-6.6711"/> <path inkscape:connector-curvature="0" id="path80" style="opacity:1;fill:#ffffff;fill-opacity:1;fill-rule:nonzero;stroke:none" d="m 81.1633,256.10731 -3.075,-10.459 c -1.1469,-3.40002 -2.3367,-6.75627 -3.4836,-10.1551 l -1.8043,0 -7.4356,22.6789 c -0.3398,0.9793 -0.755,3.05 -1.3921,3.7731 -0.7227,0.9769 -1.6473,1.1992 -2.8793,1.2851 l 0,1.1559 c 2.0394,-0.0418 4.0785,-0.127 6.1179,-0.1692 2.0821,0.0422 4.5664,0.1274 6.6485,0.1692 l 0,-1.1559 c -1.3598,-0.1281 -3.6442,-0.1281 -3.6442,-2.0832 0,-0.9777 1.1571,-4.1207 1.4547,-5.184 l 3.9305,-12.35584 6.3871,20.77894 1.8988,0 6.7766,-20.02894 2.4461,7.17504 c 0.5527,1.8691 2.2519,7.1929 2.2519,8.8507 0,2.634 -1.1695,2.634 -3.2937,2.8473 l 0,1.1559 c 1.5293,-0.0418 3.059,-0.127 4.5887,-0.1692 1.4867,0.0422 2.9316,0.1274 4.4187,0.1692 l 0,-1.1559 c -3.1441,0.084 -3.7391,-3.2301 -4.4187,-5.609 l -6.6508,-22.1281 -2.2067,0 -6.6355,20.6141"/> <path inkscape:connector-curvature="0" id="path82" style="opacity:1;fill:#ffffff;fill-opacity:1;fill-rule:nonzero;stroke:none" d="m 104.791,256.13301 c 0,1.3614 0,4.5051 -0.425,5.6524 -0.553,1.4449 -2.295,1.4449 -3.654,1.4449 l 0,1.1559 c 2.039,-0.0418 4.619,-0.127 6.658,-0.1692 2.167,0.0422 4.471,0.1274 6.596,0.1692 l 0,-1.1559 c -1.36,0 -3.102,-0.1801 -3.654,-1.625 -0.425,-1.148 -0.065,-4.1109 -0.065,-5.4723 l 0,-11.62183 c 0,-1.35977 -0.181,-4.14414 0.245,-5.2918 0.552,-1.44414 2.474,-1.80429 3.833,-1.80429 l 0,-1.15782 c -1.996,0.043 -4.618,0.12696 -6.658,0.16992 -2.124,-0.043 -4.831,-0.12695 -6.955,-0.16992 l 0,1.15782 c 1.359,0 3.282,0.36015 3.834,1.80429 0.425,1.14766 0.245,3.93203 0.245,5.2918 l 0,11.62183"/> <path inkscape:connector-curvature="0" id="path84" style="opacity:1;fill:#ffffff;fill-opacity:1;fill-rule:nonzero;stroke:none" d="m 115.465,244.84126 1.337,0 c 0.85,-4.29297 3.144,-7.72305 8.031,-7.72305 3.314,0 5.716,1.68789 5.716,5.13008 0,3.55972 -3.815,5.21872 -6.459,6.26872 -3.866,1.4871 -8.167,3.8883 -8.167,8.7313 0,4.8437 4.321,7.8289 8.952,7.8289 2.337,0 4.324,-0.6281 6.236,-1.9879 l 0.977,1.6578 0.828,0 0.392,-7.891 -1.158,0 c -0.977,3.5269 -2.794,6.7141 -6.915,6.7141 -2.719,0 -4.791,-1.5629 -4.791,-4.3239 0,-3.3582 3.244,-3.857 5.83,-5.0699 5.577,-2.616 9.168,-4.3031 9.168,-10.14218 0,-5.22383 -4.216,-8.24415 -10.694,-8.24415 -2.89,0 -4.961,0.49024 -7.256,2.19024 l -0.84,-1.425 -1.187,0 0,8.28594"/> <path inkscape:connector-curvature="0" id="path86" style="opacity:1;fill:#ffffff;fill-opacity:1;fill-rule:nonzero;stroke:none" d="m 248.128,256.13301 c 0,1.3614 0,4.5051 -0.425,5.6524 -0.553,1.4449 -2.294,1.4449 -3.654,1.4449 l 0,1.1559 c 2.04,-0.0418 4.619,-0.127 6.658,-0.1692 2.167,0.0422 4.472,0.1274 6.596,0.1692 l 0,-1.1559 c -1.36,0 -3.101,-0.1801 -3.654,-1.625 -0.425,-1.148 -0.065,-4.1109 -0.065,-5.4723 l 0,-11.62183 c 0,-1.35977 -0.18,-4.14414 0.245,-5.2918 0.552,-1.44414 2.474,-1.80429 3.834,-1.80429 l 0,-1.15782 c -1.997,0.043 -4.619,0.12696 -6.658,0.16992 -2.124,-0.043 -4.831,-0.12695 -6.956,-0.16992 l 0,1.15782 c 1.36,0 3.282,0.36015 3.834,1.80429 0.425,1.14766 0.245,3.93203 0.245,5.2918 l 0,11.62183"/> <path inkscape:connector-curvature="0" id="path88" style="opacity:1;fill:#ffffff;fill-opacity:1;fill-rule:nonzero;stroke:none" d="m 224.193,244.84126 1.337,0 c 0.85,-4.29297 3.144,-7.72305 8.031,-7.72305 3.313,0 5.715,1.68789 5.715,5.13008 0,3.55972 -3.815,5.21872 -6.458,6.26872 -3.866,1.4871 -8.168,3.8883 -8.168,8.7313 0,4.8437 4.322,7.8289 8.954,7.8289 2.335,0 4.323,-0.6281 6.235,-1.9879 l 0.976,1.6578 0.829,0 0.391,-7.891 -1.157,0 c -0.977,3.5269 -2.794,6.7141 -6.915,6.7141 -2.719,0 -4.791,-1.5629 -4.791,-4.3239 0,-3.3582 3.244,-3.857 5.83,-5.0699 5.576,-2.616 9.168,-4.3031 9.168,-10.14218 0,-5.22383 -4.217,-8.24415 -10.694,-8.24415 -2.89,0 -4.961,0.49024 -7.256,2.19024 l -0.84,-1.425 -1.187,0 0,8.28594"/> <path inkscape:connector-curvature="0" id="path90" style="opacity:1;fill:#ffffff;fill-opacity:1;fill-rule:nonzero;stroke:none" d="m 160.382,264.43931 0.997,0 0.34,-8.191 -0.977,0 c -1.766,4.5621 -2.641,7.491 -8.786,7.491 -7.188,0 -9,-7.4242 -9,-13.7141 0,-5.49997 2.357,-12.71794 9.085,-12.71794 5.949,0 7.937,4.24883 9.211,9.34804 l 1.124,0 0,-9.48593 -0.912,0 -1.02,1.98789 c -2.846,-2.25195 -5.555,-3.36719 -9.21,-3.36719 -8.625,0 -14.848,5.56602 -14.848,14.23513 0,9.209 6.022,15.2309 15.231,15.2309 3.484,0 4.974,-0.627 7.905,-2.4551 l 0.86,1.6383"/> <path inkscape:connector-curvature="0" id="path92" style="opacity:1;fill:#ffffff;fill-opacity:1;fill-rule:nonzero;stroke:none" d="m 197.975,260.68031 c -1.318,1.8699 -2.158,2.507 -4.452,2.55 l 0,1.1559 c 1.36,-0.0418 3.037,-0.127 4.396,-0.1692 1.104,0.0422 2.612,0.1274 3.896,0.1692 l 17.296,-20.80316 0,10.55316 c 0,1.8269 0,4.8019 -0.382,6.5441 -0.51,2.3789 -1.297,2.209 -3.422,2.55 l 0,1.1559 c 1.572,-0.0418 3.101,-0.127 4.674,-0.1692 1.487,0.0422 2.931,0.1274 4.503,0.1692 l 0,-1.1559 c -1.572,-0.1711 -2.675,-0.043 -3.228,-1.8699 -0.425,-1.3602 -0.51,-5.7371 -0.51,-7.4371 l 0,-18.13323 -1.994,0 c -0.936,1.14727 -2.23,2.69727 -3.164,3.88633 l -15.979,19.2406 0,-13.55661 c 0,-1.57227 -0.071,-4.34727 0.457,-5.84336 0.603,-1.70469 2.305,-1.93281 3.877,-2.10195 l 0,-1.15782 c -1.615,0.043 -3.452,0.12696 -5.066,0.16992 -1.572,-0.043 -3.324,-0.12695 -4.897,-0.16992 l 0,1.15782 c 1.658,0.16914 3.583,0.5832 3.834,2.44101 0.224,1.65703 0.161,3.84805 0.161,5.5043 l 0,15.31991"/> <path inkscape:connector-curvature="0" id="path94" style="opacity:1;fill:#ffffff;fill-opacity:1;fill-rule:nonzero;stroke:none" d="m 262.904,260.68031 c -1.316,1.8699 -2.156,2.507 -4.451,2.55 l 0,1.1559 c 1.36,-0.0418 3.036,-0.127 4.396,-0.1692 1.105,0.0422 2.612,0.1274 3.896,0.1692 l 17.296,-20.80316 0,10.55316 c 0,1.8269 0,4.8019 -0.383,6.5441 -0.51,2.3789 -1.297,2.209 -3.422,2.55 l 0,1.1559 c 1.573,-0.0418 3.103,-0.127 4.674,-0.1692 1.487,0.0422 2.932,0.1274 4.505,0.1692 l 0,-1.1559 c -1.573,-0.1711 -2.677,-0.043 -3.229,-1.8699 -0.425,-1.3602 -0.51,-5.7371 -0.51,-7.4371 l 0,-18.13323 -1.994,0 c -0.936,1.14727 -2.23,2.69727 -3.164,3.88633 l -15.979,19.2406 0,-13.55661 c 0,-1.57227 -0.071,-4.34727 0.457,-5.84336 0.603,-1.70469 2.305,-1.93281 3.877,-2.10195 l 0,-1.15782 c -1.615,0.043 -3.451,0.12696 -5.066,0.16992 -1.573,-0.043 -3.325,-0.12695 -4.897,-0.16992 l 0,1.15782 c 1.657,0.16914 3.584,0.5832 3.834,2.44101 0.224,1.65703 0.16,3.84805 0.16,5.5043 l 0,15.31991"/> <path inkscape:connector-curvature="0" id="path96" style="opacity:1;fill:#ffffff;fill-opacity:1;fill-rule:nonzero;stroke:none" d="m 75.4824,333.78111 c 0,-4.5758 -0.3785,-6.2777 5.2879,-6.75 l 0,-1.7969 c -3.25,0.0621 -6.3125,0.1871 -9.375,0.25 -3.125,-0.0629 -6.1324,-0.1879 -9.2574,-0.25 l 0,1.7969 c 4.8332,0.4031 5.468,1.743 5.468,6.75 l 0,24.5511 -0.125,0 -6.7653,-15.459 c -2.625,-6 -5.0078,-11.6402 -7.6328,-17.639 l -1.5242,0 -14.468,32.918 -0.125,0 0,-23.434 c 0,-4.525 0.911,-7.4539 5.6403,-7.6871 l 0,-1.7969 c -2.3125,0.0621 -4.625,0.1871 -6.9375,0.25 -2.1875,-0.0629 -4.375,-0.1879 -6.5625,-0.25 l 0,1.7969 c 4.75,0 5.625,2.875 5.625,5.6871 l 0,25.905 c 0,1.625 -0.25,3.25 -0.5625,4.063 -0.8125,2.125 -3.7348,2.125 -5.7348,2.125 l 0,1.797 c 2.125,-0.125 5.0867,-0.187 7.2117,-0.25 1.9375,0.063 4.3524,0.125 6.2899,0.25 l 13.0304,-30.381 13.0153,30.381 c 1.9375,-0.125 4.657,-0.187 6.5945,-0.25 2,0.063 4.7195,0.125 6.907,0.25 l 0,-1.679 c -2,0 -4.4375,-0.243 -5.375,-2.306 -0.625,-1.375 -0.625,-4.444 -0.625,-6.757 l 0,-22.0851"/> <path inkscape:connector-curvature="0" id="path98" style="opacity:1;fill:#ffffff;fill-opacity:1;fill-rule:nonzero;stroke:none" d="m 60.8262,318.91311 1.6566,0 0.5,-12.4937 -1.6172,0 c -1.2578,7.8129 -6.8828,11.25 -13.0078,11.2726 -11.8117,0.0442 -13.6625,-13.575 -13.6625,-20.6156 0,-9.1473 3.7652,-19.141 14.3277,-19.141 8.3227,0 11.4911,6.8047 13.2723,13.9297 l 1.6652,0 0,-14.227 -1.3527,0 -1.5,3.1883 c -3.766,-2.9801 -8.9699,-5.2293 -13.632,-5.2293 -12.1047,0 -22.3922,6.8121 -22.3922,21.4793 0,14.1867 9.7539,22.7738 22.7742,22.7738 4.6902,0 8.2574,-1.5621 11.9684,-3.875 l 1,2.9379"/> <rect style="opacity:1;fill:#ffffff;fill-opacity:1;stroke:none;stroke-width:0.79959208;stroke-miterlimit:4;stroke-dasharray:none;stroke-opacity:1" id="rect4284" width="289.41998" height="3.2545331" x="0" y="-220.04408" transform="scale(1,-1)"/> <g transform="scale(1,-1)" style="font-style:normal;font-weight:normal;font-size:32px;line-height:125%;font-family:sans-serif;letter-spacing:0px;word-spacing:0px;fill:#ffffff;fill-opacity:1;stroke:none;stroke-width:1px;stroke-linecap:butt;stroke-linejoin:miter;stroke-opacity:1" id="text4288"> <path inkscape:connector-curvature="0" d="m -0.595295,-178.07636 c -1.548,0 -1.944,-0.504 -3.852,-4.932 l -7.848,-18.54 -1.008,0 -7.812,19.332 c -1.332,3.312 -1.764,3.816 -3.456,4.14 l 0,0.864 7.164,0 0,-0.864 c -2.088,-0.144 -2.88,-0.54 -2.88,-1.476 0,-0.468 0.288,-1.44 1.008,-3.204 l 0.54,-1.404 7.92,0 c 1.188,2.736 1.62,4.032 1.62,4.824 0,0.72 -0.468,1.044 -1.692,1.152 -0.18,0 -0.612,0.036 -1.116,0.108 l 0,0.864 11.412,0 0,-0.864 z m -17.64,-7.452 3.312,-8.568 3.564,8.568 -6.876,0 z" style="font-style:normal;font-variant:normal;font-weight:bold;font-stretch:normal;font-size:36px;font-family:'Times New Roman';-inkscape-font-specification:'Times New Roman, Bold';fill:#ffffff;fill-opacity:1" id="path4183"/> <path inkscape:connector-curvature="0" d="m 1.69633,-177.21236 7.992,0 0,-0.864 c -2.664,-0.324 -3.312,-0.972 -3.348,-3.492 l 0,-14.22 15.804,19.224 0.972,0 0,-20.772 c 0,-2.016 0.468,-2.484 2.736,-2.844 l 0,-0.864 -7.56,0 0,0.864 c 2.556,0.252 3.276,1.008 3.276,3.492 l 0,10.8 -12.348,-15.156 -7.416,0 0,0.864 c 0.684,0 1.332,0.54 2.988,2.556 l 0,16.704 c -0.036,2.088 -0.576,2.556 -3.096,2.844 l 0,0.864 z" style="font-style:normal;font-variant:normal;font-weight:bold;font-stretch:normal;font-size:36px;font-family:'Times New Roman';-inkscape-font-specification:'Times New Roman, Bold';fill:#ffffff;fill-opacity:1" id="path4185"/> <path inkscape:connector-curvature="0" d="m 27.711955,-200.18036 c 2.376,0.108 3.024,0.648 3.096,2.52 l 0,17.064 c -0.072,1.872 -0.576,2.304 -3.096,2.52 l 0,0.864 20.628,0 1.404,-7.344 -0.972,0 c -1.116,2.376 -1.836,3.384 -3.096,4.392 -1.62,1.296 -3.528,1.872 -6.228,1.872 -2.268,0 -2.916,-0.432 -2.916,-1.98 l 0,-8.532 c 3.852,0 5.292,1.368 5.724,5.472 l 0.9,0 0,-11.952 -0.9,0 c -0.54,4.032 -1.944,5.328 -5.724,5.292 l 0,-8.208 c 0,-1.332 0.468,-1.656 2.304,-1.656 5.724,0 7.452,1.224 8.352,5.904 l 0.864,0 0,-7.092 -20.34,0 0,0.864 z" style="font-style:normal;font-variant:normal;font-weight:bold;font-stretch:normal;font-size:36px;font-family:'Times New Roman';-inkscape-font-specification:'Times New Roman, Bold';fill:#ffffff;fill-opacity:1" id="path4187"/> <path inkscape:connector-curvature="0" d="m 68.21083,-193.95236 0,-7.668 -1.044,0 c -0.288,0.936 -0.504,1.188 -1.152,1.188 -0.324,0 -0.72,-0.108 -1.476,-0.36 -1.62,-0.576 -2.736,-0.792 -4.14,-0.792 -4.788,0 -7.704,2.736 -7.704,7.2 0,3.06 1.836,5.292 6.012,7.308 l 2.376,1.116 c 3.06,1.44 3.924,2.412 3.924,4.284 0,2.412 -1.728,3.996 -4.428,3.996 -2.088,0 -3.816,-0.9 -5.112,-2.628 -1.008,-1.296 -1.476,-2.484 -2.088,-4.932 l -1.008,0 0,8.712 1.008,0 c 0.252,-0.936 0.504,-1.224 1.08,-1.224 0.288,0 0.684,0.108 1.44,0.36 1.692,0.612 3.024,0.864 4.572,0.864 5.22,0 8.748,-2.988 8.748,-7.452 0,-2.628 -1.584,-5.292 -3.852,-6.408 l -5.184,-2.592 c -2.844,-1.404 -3.636,-2.268 -3.636,-3.996 0,-2.196 1.476,-3.528 3.852,-3.528 1.62,0 3.096,0.684 4.356,1.98 1.188,1.224 1.728,2.268 2.484,4.572 l 0.972,0 z" style="font-style:normal;font-variant:normal;font-weight:bold;font-stretch:normal;font-size:36px;font-family:'Times New Roman';-inkscape-font-specification:'Times New Roman, Bold';fill:#ffffff;fill-opacity:1" id="path4189"/> <path inkscape:connector-curvature="0" d="m 89.293893,-178.07636 c -2.988,-0.18 -3.384,-0.54 -3.456,-3.276 l 0,-18.576 c 4.32,0.144 6.192,1.764 6.768,5.976 l 1.008,0 -0.036,-7.092 -21.204,0 -0.072,7.092 1.008,0 c 0.576,-4.212 2.448,-5.832 6.804,-5.976 l 0,18.576 c -0.072,2.7 -0.468,3.06 -3.42,3.276 l 0,0.864 12.6,0 0,-0.864 z" style="font-style:normal;font-variant:normal;font-weight:bold;font-stretch:normal;font-size:36px;font-family:'Times New Roman';-inkscape-font-specification:'Times New Roman, Bold';fill:#ffffff;fill-opacity:1" id="path4191"/> <path inkscape:connector-curvature="0" d="m 122.08877,-178.07636 c -2.484,-0.288 -3.06,-0.756 -3.096,-2.52 l 0,-17.064 c 0.036,-1.8 0.792,-2.376 3.096,-2.52 l 0,-0.864 -11.988,0 0,0.864 c 2.376,0.144 3.096,0.684 3.168,2.52 l 0,7.308 -8.496,0 0,-7.308 c 0.072,-1.8 0.792,-2.376 3.168,-2.52 l 0,-0.864 -11.880002,0 0,0.864 c 2.268,0.18 2.916,0.72 2.988,2.52 l 0,17.064 c -0.036,1.764 -0.576,2.232 -2.988,2.52 l 0,0.864 11.880002,0 0,-0.864 c -2.52,-0.252 -3.132,-0.72 -3.168,-2.52 l 0,-8.1 8.496,0 0,8.1 c -0.072,1.8 -0.648,2.268 -3.168,2.52 l 0,0.864 11.988,0 0,-0.864 z" style="font-style:normal;font-variant:normal;font-weight:bold;font-stretch:normal;font-size:36px;font-family:'Times New Roman';-inkscape-font-specification:'Times New Roman, Bold';fill:#ffffff;fill-opacity:1" id="path4193"/> <path inkscape:connector-curvature="0" d="m 123.82914,-200.18036 c 2.376,0.108 3.024,0.648 3.096,2.52 l 0,17.064 c -0.072,1.872 -0.576,2.304 -3.096,2.52 l 0,0.864 20.628,0 1.404,-7.344 -0.972,0 c -1.116,2.376 -1.836,3.384 -3.096,4.392 -1.62,1.296 -3.528,1.872 -6.228,1.872 -2.268,0 -2.916,-0.432 -2.916,-1.98 l 0,-8.532 c 3.852,0 5.292,1.368 5.724,5.472 l 0.9,0 0,-11.952 -0.9,0 c -0.54,4.032 -1.944,5.328 -5.724,5.292 l 0,-8.208 c 0,-1.332 0.468,-1.656 2.304,-1.656 5.724,0 7.452,1.224 8.352,5.904 l 0.864,0 0,-7.092 -20.34,0 0,0.864 z" style="font-style:normal;font-variant:normal;font-weight:bold;font-stretch:normal;font-size:36px;font-family:'Times New Roman';-inkscape-font-specification:'Times New Roman, Bold';fill:#ffffff;fill-opacity:1" id="path4195"/> <path inkscape:connector-curvature="0" d="m 164.32802,-193.95236 0,-7.668 -1.044,0 c -0.288,0.936 -0.504,1.188 -1.152,1.188 -0.324,0 -0.72,-0.108 -1.476,-0.36 -1.62,-0.576 -2.736,-0.792 -4.14,-0.792 -4.788,0 -7.704,2.736 -7.704,7.2 0,3.06 1.836,5.292 6.012,7.308 l 2.376,1.116 c 3.06,1.44 3.924,2.412 3.924,4.284 0,2.412 -1.728,3.996 -4.428,3.996 -2.088,0 -3.816,-0.9 -5.112,-2.628 -1.008,-1.296 -1.476,-2.484 -2.088,-4.932 l -1.008,0 0,8.712 1.008,0 c 0.252,-0.936 0.504,-1.224 1.08,-1.224 0.288,0 0.684,0.108 1.44,0.36 1.692,0.612 3.024,0.864 4.572,0.864 5.22,0 8.748,-2.988 8.748,-7.452 0,-2.628 -1.584,-5.292 -3.852,-6.408 l -5.184,-2.592 c -2.844,-1.404 -3.636,-2.268 -3.636,-3.996 0,-2.196 1.476,-3.528 3.852,-3.528 1.62,0 3.096,0.684 4.356,1.98 1.188,1.224 1.728,2.268 2.484,4.572 l 0.972,0 z" style="font-style:normal;font-variant:normal;font-weight:bold;font-stretch:normal;font-size:36px;font-family:'Times New Roman';-inkscape-font-specification:'Times New Roman, Bold';fill:#ffffff;fill-opacity:1" id="path4197"/> <path inkscape:connector-curvature="0" d="m 180.29908,-178.07636 c -2.628,-0.144 -3.312,-0.684 -3.348,-2.52 l 0,-17.064 c 0.036,-1.872 0.792,-2.448 3.348,-2.52 l 0,-0.864 -12.348,0 0,0.864 c 2.484,0.144 3.204,0.684 3.276,2.52 l 0,17.064 c -0.036,1.8 -0.72,2.304 -3.276,2.52 l 0,0.864 12.348,0 0,-0.864 z" style="font-style:normal;font-variant:normal;font-weight:bold;font-stretch:normal;font-size:36px;font-family:'Times New Roman';-inkscape-font-specification:'Times New Roman, Bold';fill:#ffffff;fill-opacity:1" id="path4199"/> <path inkscape:connector-curvature="0" d="m 195.19127,-201.58436 c -7.38,0 -12.6,5.22 -12.6,12.564 0,7.308 5.184,12.492 12.492,12.492 7.272,0 12.456,-5.184 12.456,-12.528 0,-7.2 -5.22,-12.528 -12.348,-12.528 z m -0.036,1.152 c 3.888,0 6.156,4.284 6.156,11.628 0,7.272 -2.16,11.124 -6.264,11.124 -4.032,0 -6.228,-3.852 -6.228,-11.016 0,-7.632 2.196,-11.736 6.336,-11.736 z" style="font-style:normal;font-variant:normal;font-weight:bold;font-stretch:normal;font-size:36px;font-family:'Times New Roman';-inkscape-font-specification:'Times New Roman, Bold';fill:#ffffff;fill-opacity:1" id="path4201"/> <path inkscape:connector-curvature="0" d="m 231.77964,-185.20436 -1.008,0 c -1.188,2.736 -1.872,3.852 -3.096,4.968 -1.44,1.332 -3.42,1.944 -6.192,1.944 -2.124,0 -2.772,-0.468 -2.772,-1.98 l 0,-16.632 c 0.072,-2.736 0.576,-3.168 3.564,-3.276 l 0,-0.864 -12.312,0 0,0.864 c 2.304,0.144 2.988,0.684 3.024,2.52 l 0,17.064 c -0.036,1.836 -0.54,2.232 -3.024,2.52 l 0,0.864 20.376,0 1.44,-7.992 z" style="font-style:normal;font-variant:normal;font-weight:bold;font-stretch:normal;font-size:36px;font-family:'Times New Roman';-inkscape-font-specification:'Times New Roman, Bold';fill:#ffffff;fill-opacity:1" id="path4203"/> <path inkscape:connector-curvature="0" d="m 247.22252,-201.58436 c -7.38,0 -12.6,5.22 -12.6,12.564 0,7.308 5.184,12.492 12.492,12.492 7.272,0 12.456,-5.184 12.456,-12.528 0,-7.2 -5.22,-12.528 -12.348,-12.528 z m -0.036,1.152 c 3.888,0 6.156,4.284 6.156,11.628 0,7.272 -2.16,11.124 -6.264,11.124 -4.032,0 -6.228,-3.852 -6.228,-11.016 0,-7.632 2.196,-11.736 6.336,-11.736 z" style="font-style:normal;font-variant:normal;font-weight:bold;font-stretch:normal;font-size:36px;font-family:'Times New Roman';-inkscape-font-specification:'Times New Roman, Bold';fill:#ffffff;fill-opacity:1" id="path4205"/> <path inkscape:connector-curvature="0" d="m 287.98689,-187.32836 -12.096,0 0,0.9 c 2.988,0.108 3.492,0.504 3.564,2.448 l 0,3.708 c 0,1.8 -1.008,2.592 -3.384,2.592 -2.232,0 -3.708,-0.648 -4.896,-2.196 -1.512,-1.98 -2.268,-4.968 -2.268,-9.252 0,-7.416 2.232,-11.304 6.48,-11.304 1.656,0 3.168,0.648 4.68,1.98 1.548,1.368 2.376,2.556 3.6,5.22 l 0.864,0 0,-8.244 -0.936,0 c -0.54,1.26 -0.864,1.62 -1.584,1.62 -0.324,0 -0.828,-0.144 -1.62,-0.468 -2.016,-0.864 -3.744,-1.26 -5.436,-1.26 -7.02,0 -12.276,5.4 -12.276,12.708 0,7.272 5.148,12.348 12.564,12.348 3.636,0 7.416,-0.864 9.72,-2.196 l 0,-4.464 c 0.072,-2.592 0.468,-3.024 3.024,-3.24 l 0,-0.9 z" style="font-style:normal;font-variant:normal;font-weight:bold;font-stretch:normal;font-size:36px;font-family:'Times New Roman';-inkscape-font-specification:'Times New Roman, Bold';fill:#ffffff;fill-opacity:1" id="path4207"/> <path inkscape:connector-curvature="0" d="m 313.99127,-201.04436 -7.74,0 0,0.864 c 2.376,0.18 2.952,0.468 2.952,1.512 0,0.684 -0.504,1.872 -1.368,3.348 l -3.924,6.516 -4.248,-8.172 -0.216,-0.432 c -0.468,-0.864 -0.612,-1.26 -0.612,-1.656 0,-0.792 0.54,-1.08 1.944,-1.08 0.144,0 0.504,0 0.9,-0.036 l 0,-0.864 -11.808,0 0,0.864 c 1.188,0.108 2.124,0.756 2.808,1.944 l 6.48,11.7 0,5.184 c -0.072,2.664 -0.468,3.024 -3.276,3.276 l 0,0.864 12.24,0 0,-0.864 c -2.844,-0.252 -3.204,-0.612 -3.24,-3.276 l 0,-6.48 6.732,-10.944 c 0.504,-0.828 1.152,-1.188 2.376,-1.404 l 0,-0.864 z" style="font-style:normal;font-variant:normal;font-weight:bold;font-stretch:normal;font-size:36px;font-family:'Times New Roman';-inkscape-font-specification:'Times New Roman, Bold';fill:#ffffff;fill-opacity:1" id="path4209"/> </g> </g> </svg>